<?xml version="1.0" encoding="utf-8"?>
<svg viewBox="0 0 500 500" xmlns="http://www.w3.org/2000/svg">
  <path d="M 346.335 216.562 L 17.335 216.562 C 12.085 216.562 6.835 221.812 6.835 227.062 L 6.835 276.062 C 6.835 281.312 12.085 286.562 17.335 286.562 L 346.335 286.562 C 351.585 286.562 356.835 281.312 356.835 276.062 L 356.835 227.062 C 356.835 221.812 351.585 216.562 346.335 216.562 Z"/>
  <path d="M 486.335 216.562 L 437.335 216.562 C 432.085 216.562 426.835 221.812 426.835 227.062 L 426.835 276.062 C 426.835 281.312 432.085 286.562 437.335 286.562 L 486.335 286.562 C 491.585 286.562 496.835 281.312 496.835 276.062 L 496.835 227.062 C 496.835 221.812 491.585 216.562 486.335 216.562 Z"/>
  <path d="M 346.335 356.562 L 17.335 356.562 C 12.085 356.562 6.835 361.812 6.835 367.062 L 6.835 416.062 C 6.835 421.312 12.085 426.562 17.335 426.562 L 346.335 426.562 C 351.585 426.562 356.835 421.312 356.835 416.062 L 356.835 367.062 C 356.835 361.812 351.585 356.562 346.335 356.562 Z"/>
  <path d="M 486.335 356.562 L 437.335 356.562 C 432.085 356.562 426.835 361.812 426.835 367.062 L 426.835 416.062 C 426.835 421.312 432.085 426.562 437.335 426.562 L 486.335 426.562 C 491.585 426.562 496.835 421.312 496.835 416.062 L 496.835 367.062 C 496.835 361.812 491.585 356.562 486.335 356.562 Z"/>
  <path d="M 346.335 76.562 L 17.335 76.562 C 12.085 76.562 6.835 81.812 6.835 87.062 L 6.835 136.062 C 6.835 141.312 12.085 146.562 17.335 146.562 L 346.335 146.562 C 351.585 146.562 356.835 141.312 356.835 136.062 L 356.835 87.062 C 356.835 81.812 351.585 76.562 346.335 76.562 Z"/>
  <path d="M 486.335 76.562 L 437.335 76.562 C 432.085 76.562 426.835 81.812 426.835 87.062 L 426.835 136.062 C 426.835 141.312 432.085 146.562 437.335 146.562 L 486.335 146.562 C 491.585 146.562 496.835 141.312 496.835 136.062 L 496.835 87.062 C 496.835 81.812 491.585 76.562 486.335 76.562 Z"/>
</svg>